<svg width="26" height="26" viewBox="0 0 26 26" fill="none" xmlns="http://www.w3.org/2000/svg">
<path d="M0.879883 13.44C0.879883 6.54745 6.46737 0.959961 13.3599 0.959961C20.2524 0.959961 25.8399 6.54745 25.8399 13.44C25.8399 20.3325 20.2524 25.92 13.3599 25.92C6.46737 25.92 0.879883 20.3325 0.879883 13.44Z" fill="white"/>
<path fill-rule="evenodd" clip-rule="evenodd" d="M16.0989 5.9519C16.2296 6.83935 15.8683 7.70875 15.3918 8.32387C14.882 8.98365 14.0033 9.49395 13.1519 9.46732C12.9965 8.61768 13.3944 7.74226 13.8786 7.15378C14.4098 6.5043 15.3201 6.00603 16.0989 5.9519ZM18.6565 18.4431C19.0954 17.7705 19.2594 17.4311 19.6001 16.6717C17.1219 15.7293 16.7249 12.2061 19.1774 10.8539C18.4293 9.91577 17.3781 9.37196 16.3858 9.37196C15.6709 9.37196 15.181 9.55854 14.7356 9.72817C14.3645 9.86952 14.0243 9.9991 13.6105 9.9991C13.1634 9.9991 12.7674 9.85712 12.3528 9.70846C11.8972 9.54511 11.419 9.37368 10.8258 9.37368C9.71221 9.37368 8.52692 10.0541 7.77544 11.2173C6.7191 12.8556 6.89929 15.9354 8.61232 18.5591C9.2246 19.4981 10.0427 20.5531 11.1127 20.5625C11.5567 20.5669 11.8521 20.4344 12.1718 20.291C12.5378 20.1269 12.9355 19.9485 13.6242 19.9448C14.3169 19.9407 14.7083 20.1213 15.0694 20.2878C15.3809 20.4315 15.6698 20.5647 16.11 20.56C17.1809 20.5514 18.0442 19.3821 18.6565 18.4431Z" fill="#0B0B0A"/>
</svg>
