<svg width="26" height="25" viewBox="0 0 26 25" fill="none" xmlns="http://www.w3.org/2000/svg">
<path d="M0.839844 12.48C0.839844 5.58749 6.42733 0 13.3198 0C20.2124 0 25.7998 5.58749 25.7998 12.48C25.7998 19.3725 20.2124 24.96 13.3198 24.96C6.42733 24.96 0.839844 19.3725 0.839844 12.48Z" fill="white"/>
<path d="M13.3194 9.16312C14.3349 9.16312 15.0199 9.60176 15.4105 9.96831L16.9368 8.4781C15.9994 7.60681 14.7796 7.07202 13.3194 7.07202C11.2043 7.07202 9.3776 8.28582 8.48828 10.0524L10.2369 11.4104C10.6755 10.1065 11.8893 9.16312 13.3194 9.16312Z" fill="#EA4335"/>
<path d="M18.5115 12.6001C18.5115 12.1555 18.4755 11.831 18.3973 11.4945H13.3198V13.5015H16.3002C16.2401 14.0002 15.9157 14.7513 15.1946 15.2561L16.9011 16.578C17.9226 15.6346 18.5115 14.2466 18.5115 12.6001Z" fill="#4285F4"/>
<path d="M10.2431 13.5497C10.1289 13.2132 10.0628 12.8526 10.0628 12.4801C10.0628 12.1075 10.1289 11.747 10.2371 11.4105L8.48847 10.0525C8.12193 10.7856 7.91162 11.6088 7.91162 12.4801C7.91162 13.3514 8.12193 14.1746 8.48847 14.9077L10.2431 13.5497Z" fill="#FBBC05"/>
<path d="M13.3198 17.888C14.7799 17.888 16.0057 17.4073 16.9011 16.578L15.1945 15.2561C14.7379 15.5746 14.125 15.7969 13.3198 15.7969C11.8897 15.7969 10.6759 14.8535 10.2432 13.5496L8.49463 14.9076C9.38394 16.6742 11.2046 17.888 13.3198 17.888Z" fill="#34A853"/>
</svg>
