<svg width="24" height="24" viewBox="0 0 24 24" fill="currentColor" xmlns="http://www.w3.org/2000/svg">
<path fill-rule="evenodd" clip-rule="evenodd" d="M12 2C9.28412 2 8.94362 2.01151 7.87701 2.06018C6.81259 2.10876 6.08569 2.27779 5.44958 2.52501C4.79199 2.78056 4.23432 3.1225 3.67839 3.67843C3.12246 4.23436 2.78052 4.79203 2.52497 5.44962C2.27775 6.08573 2.10872 6.81263 2.06014 7.87705C2.01147 8.94362 2 9.28416 2 12C2 14.7159 2.01147 15.0564 2.06014 16.123C2.10872 17.1874 2.27775 17.9143 2.52497 18.5504C2.78052 19.208 3.12246 19.7657 3.67839 20.3216C4.23432 20.8775 4.79199 21.2195 5.44958 21.475C6.08569 21.7223 6.81259 21.8913 7.87701 21.9399C8.94362 21.9885 9.28412 22 12 22C14.7158 22 15.0564 21.9885 16.1229 21.9399C17.1874 21.8913 17.9143 21.7223 18.5504 21.475C19.208 21.2195 19.7656 20.8775 20.3216 20.3216C20.8775 19.7657 21.2194 19.208 21.475 18.5504C21.7222 17.9143 21.8912 17.1874 21.9398 16.123C21.9885 15.0564 22 14.7159 22 12C22 9.28416 21.9885 8.94362 21.9398 7.87705C21.8912 6.81263 21.7222 6.08573 21.475 5.44962C21.2194 4.79203 20.8775 4.23436 20.3216 3.67843C19.7656 3.1225 19.208 2.78056 18.5504 2.52501C17.9143 2.27779 17.1874 2.10876 16.1229 2.06018C15.0564 2.01151 14.7158 2 12 2ZM12.0139 6.88086C9.17577 6.88086 6.875 9.18163 6.875 12.0197C6.875 14.8579 9.17577 17.1586 12.0139 17.1586C14.852 17.1586 17.1528 14.8579 17.1528 12.0197C17.1528 9.18163 14.852 6.88086 12.0139 6.88086ZM12.0233 15.3561C10.181 15.3561 8.6875 13.8626 8.6875 12.0203C8.6875 10.1781 10.181 8.68457 12.0233 8.68457C13.8656 8.68457 15.3591 10.1781 15.3591 12.0203C15.3591 13.8626 13.8656 15.3561 12.0233 15.3561ZM18.5099 6.64358C18.5099 7.30107 17.9769 7.83408 17.3194 7.83408C16.6619 7.83408 16.1289 7.30107 16.1289 6.64358C16.1289 5.98609 16.6619 5.45312 17.3194 5.45312C17.9769 5.45312 18.5099 5.98609 18.5099 6.64358Z"/>
</svg>
