<svg width="30" height="30" viewBox="0 0 30 30" fill="currentColor" xmlns="http://www.w3.org/2000/svg">
<g clip-path="url(#clip0_3_2)">
<path fill-rule="evenodd" clip-rule="evenodd" d="M16.4713 27.4269C16.4713 27.4269 17.0126 27.3654 17.29 27.0608C17.5439 26.7818 17.535 26.2551 17.535 26.2551C17.535 26.2551 17.5013 23.7961 18.6179 23.433C19.7184 23.076 21.1314 25.811 22.631 26.8628C23.7638 27.6579 24.6236 27.4839 24.6236 27.4839L28.6308 27.4269C28.6308 27.4269 30.7261 27.2949 29.7328 25.61C29.6505 25.472 29.1531 24.3633 26.7541 22.0858C24.2406 19.7018 24.5781 20.0874 27.6036 15.963C29.4466 13.4515 30.1831 11.9182 29.9528 11.2625C29.7341 10.6354 28.3784 10.8019 28.3784 10.8019L23.8679 10.8304C23.8679 10.8304 23.5334 10.7839 23.2854 10.9355C23.0433 11.084 22.8863 11.4306 22.8863 11.4306C22.8863 11.4306 22.1731 13.3735 21.2209 15.0268C19.2121 18.5135 18.4095 18.698 18.0809 18.482C17.3164 17.9764 17.5071 16.4536 17.5071 15.3719C17.5071 11.9917 18.009 10.5829 16.5314 10.2183C16.0414 10.0968 15.6804 10.0173 14.4259 10.0038C12.8163 9.98725 11.4545 10.0098 10.6827 10.3953C10.1692 10.6519 9.77301 11.225 10.0151 11.258C10.313 11.2985 10.9879 11.4441 11.346 11.9422C11.8082 12.5858 11.792 14.0291 11.792 14.0291C11.792 14.0291 12.0576 18.0079 11.1714 18.5015C10.5639 18.8406 9.73046 18.149 7.93889 14.9848C7.02183 13.3645 6.32926 11.5731 6.32926 11.5731C6.32926 11.5731 6.19574 11.2385 5.95656 11.0585C5.66751 10.8409 5.264 10.7734 5.264 10.7734L0.978013 10.8019C0.978013 10.8019 0.333868 10.8199 0.0976318 11.1065C-0.112192 11.36 0.0814915 11.8866 0.0814915 11.8866C0.0814915 11.8866 3.43721 19.9148 7.23751 23.9611C10.7224 27.6699 14.6783 27.4269 14.6783 27.4269H16.4713Z" fill="black"/>
</g>
<defs>
<clipPath id="clip0_3_2">
<rect width="30" height="30" fill="white"/>
</clipPath>
</defs>
</svg>
