<svg width="25" height="25" viewBox="0 0 25 25" fill="none" xmlns="http://www.w3.org/2000/svg">
<path d="M9.06755 0.742569H16.4301C23.1551 0.742569 24.7426 2.34257 24.7426 9.06757V16.4301C24.7426 23.1551 23.1426 24.7426 16.4176 24.7426H9.05505C2.33005 24.7426 0.742554 23.1426 0.742554 16.4176V9.05507C0.742554 2.34257 2.34255 0.742569 9.06755 0.742569Z" fill="#ABABAB"/>
<path fill-rule="evenodd" clip-rule="evenodd" d="M20.3926 9.00508C20.5051 8.63008 20.3926 8.36758 19.8676 8.36758H18.1176C17.6676 8.36758 17.4676 8.60508 17.3551 8.86758C17.3551 8.86758 16.4676 11.0426 15.2051 12.4426C14.7926 12.8551 14.6176 12.9801 14.3926 12.9801C14.2801 12.9801 14.1176 12.8551 14.1176 12.4801V9.00508C14.1176 8.55508 13.9926 8.36758 13.6176 8.36758H10.8676C10.5926 8.36758 10.4176 8.58008 10.4176 8.76758C10.4176 9.19258 11.0426 9.29258 11.1176 10.4676V13.0426C11.1176 13.6051 11.0176 13.7051 10.7926 13.7051C10.2051 13.7051 8.75508 11.5301 7.90508 9.03008C7.73008 8.56758 7.56758 8.36758 7.11758 8.36758H5.36758C4.86758 8.36758 4.76758 8.60508 4.76758 8.86758C4.76758 9.33008 5.35508 11.6301 7.53008 14.6676C8.98008 16.7426 11.0176 17.8676 12.8676 17.8676C13.9801 17.8676 14.1176 17.6176 14.1176 17.1926V15.6176C14.1176 15.1176 14.2176 15.0176 14.5801 15.0176C14.8426 15.0176 15.2801 15.1426 16.3176 16.1426C17.5051 17.3301 17.7051 17.8676 18.3676 17.8676H20.1176C20.6176 17.8676 20.8676 17.6176 20.7176 17.1301C20.5551 16.6426 19.9926 15.9301 19.2426 15.0801C18.8301 14.5926 18.2176 14.0801 18.0426 13.8176C17.7801 13.4801 17.8551 13.3301 18.0426 13.0426C18.0426 13.0301 20.1801 10.0301 20.3926 9.00508Z" fill="#171717"/>
</svg>
