<svg width="24" height="24" viewBox="0 0 24 24" fill="currentColor" xmlns="http://www.w3.org/2000/svg">
<path d="M8.9705 15.6201L8.48506 20.7793C8.48506 20.7793 8.28186 22.3601 9.86234 20.7793C11.4428 19.1985 12.9556 17.9795 12.9556 17.9795"/>
<path d="M5.66303 14.0748L0.461211 12.38C0.461211 12.38 -0.160465 12.1278 0.0397146 11.5558C0.0809228 11.4379 0.164049 11.3375 0.41272 11.165C1.56531 10.3617 21.7461 3.10813 21.7461 3.10813C21.7461 3.10813 22.3159 2.91612 22.652 3.04383C22.7351 3.06957 22.8099 3.11692 22.8688 3.18106C22.9276 3.24519 22.9683 3.3238 22.9868 3.40884C23.0231 3.55905 23.0383 3.71359 23.0319 3.86799C23.0303 4.00157 23.0142 4.12537 23.0019 4.31951C22.879 6.30265 19.2008 21.1035 19.2008 21.1035C19.2008 21.1035 18.9807 21.9696 18.1923 21.9992C17.9985 22.0055 17.8055 21.9727 17.6247 21.9027C17.4439 21.8328 17.279 21.7272 17.1399 21.5921C15.5926 20.2612 10.2448 16.6672 9.06307 15.8768C9.03641 15.8586 9.01396 15.835 8.99723 15.8074C8.9805 15.7798 8.96988 15.749 8.96608 15.717C8.94957 15.6336 9.04015 15.5304 9.04015 15.5304C9.04015 15.5304 18.3521 7.25328 18.5999 6.38436C18.6191 6.31704 18.5466 6.28383 18.4493 6.31331C17.8308 6.54084 7.10923 13.3116 5.92592 14.0589C5.84074 14.0846 5.75071 14.0901 5.66303 14.0748V14.0748Z"/>
</svg>
