<svg width="25" height="25" viewBox="0 0 25 25" fill="none" xmlns="http://www.w3.org/2000/svg">
<path d="M0 12.48C0 5.58749 5.58749 0 12.48 0C19.3725 0 24.96 5.58749 24.96 12.48C24.96 19.3725 19.3725 24.96 12.48 24.96C5.58749 24.96 0 19.3725 0 12.48Z" fill="#005FF9"/>
<path fill-rule="evenodd" clip-rule="evenodd" d="M5.2002 12.4593C5.2002 8.45648 8.46592 5.19995 12.4801 5.19995C16.4943 5.19995 19.76 8.45648 19.76 12.4593C19.76 13.0264 19.7127 13.4854 19.6067 13.9462L19.6051 13.9538C19.6048 13.9552 19.5522 14.1676 19.5232 14.2603C19.3433 14.8341 19.0175 15.312 18.5811 15.6423C18.1579 15.9627 17.6331 16.1392 17.1035 16.1392C17.0381 16.1392 16.9722 16.1366 16.9077 16.1314C16.1557 16.0712 15.4944 15.6766 15.0889 15.0473C14.3916 15.7466 13.4663 16.1313 12.4801 16.1313C10.4497 16.1313 8.79778 14.484 8.79778 12.4593C8.79778 10.4346 10.4497 8.7874 12.4801 8.7874C14.5105 8.7874 16.1624 10.4346 16.1624 12.4593V13.643C16.1655 14.3336 16.6302 14.6159 17.0273 14.6479C17.4223 14.6783 17.9481 14.4488 18.1312 13.6999C18.2216 13.2892 18.2675 12.8717 18.2675 12.4593C18.2675 9.27712 15.6713 6.68826 12.4801 6.68826C9.28892 6.68826 6.69275 9.27712 6.69275 12.4593C6.69275 15.6415 9.28892 18.2304 12.4801 18.2304C13.5909 18.2304 14.6713 17.914 15.6043 17.3155L15.621 17.3047L16.6018 18.4417L16.5807 18.4561C15.3687 19.2821 13.9507 19.7187 12.4801 19.7187C8.46592 19.7187 5.2002 16.4622 5.2002 12.4593ZM12.4801 14.6429C13.6875 14.6429 14.6699 13.6634 14.6699 12.4593C14.6699 11.2553 13.6875 10.2757 12.4801 10.2757C11.2726 10.2757 10.2903 11.2553 10.2903 12.4593C10.2903 13.6634 11.2726 14.6429 12.4801 14.6429Z" fill="#FF9E00"/>
</svg>
