<svg xmlns="http://www.w3.org/2000/svg" xmlns:xlink="http://www.w3.org/1999/xlink"><defs><filter id="a" x="0" y="215.998" width="22.611" height="15.927" filterUnits="userSpaceOnUse" color-interpolation-filters="sRGB"><feFlood flood-opacity="0" result="BackgroundImageFix"/><feColorMatrix in="SourceAlpha" values="0 0 0 0 0 0 0 0 0 0 0 0 0 0 0 0 0 0 127 0" result="hardAlpha"/><feOffset dy="1"/><feGaussianBlur stdDeviation=".5"/><feComposite in2="hardAlpha" operator="out"/><feColorMatrix values="0 0 0 0 0 0 0 0 0 0 0 0 0 0 0 0 0 0 0.15 0"/><feBlend in2="BackgroundImageFix" result="effect1_dropShadow_7610_131"/><feBlend in="SourceGraphic" in2="effect1_dropShadow_7610_131" result="shape"/></filter></defs><symbol id="icon-apple"><path d="M.88 13.44C.88 6.547 6.467.96 13.36.96c6.892 0 12.48 5.587 12.48 12.48 0 6.893-5.588 12.48-12.48 12.48C6.467 25.92.88 20.332.88 13.44Z" fill="#fff"/><path fill-rule="evenodd" clip-rule="evenodd" d="M16.099 5.952c.13.887-.23 1.757-.707 2.372-.51.66-1.389 1.17-2.24 1.143-.155-.85.242-1.725.727-2.313.53-.65 1.441-1.148 2.22-1.202Zm2.558 12.491c.438-.673.602-1.012.943-1.771-2.478-.943-2.875-4.466-.423-5.818-.748-.938-1.799-1.482-2.791-1.482-.715 0-1.205.187-1.65.356-.372.142-.712.271-1.126.271-.447 0-.843-.142-1.257-.29-.456-.164-.934-.335-1.527-.335-1.114 0-2.3.68-3.05 1.843-1.057 1.639-.877 4.718.836 7.342.613.94 1.43 1.994 2.5 2.003.445.005.74-.128 1.06-.271.366-.164.763-.343 1.452-.346.693-.004 1.084.176 1.445.343.312.143.6.277 1.041.272 1.07-.009 1.934-1.178 2.547-2.117Z" fill="#0B0B0A"/></symbol><symbol id="icon-arrow"><path d="M1.232 17.232a2.5 2.5 0 0 0 0 3.536l15.91 15.91a2.5 2.5 0 0 0 3.536-3.536L6.536 19 20.678 4.858a2.5 2.5 0 0 0-3.536-3.536l-15.91 15.91ZM4 16.5H3v5h1v-5Z"/></symbol><symbol id="icon-discord" viewBox="0 -28.5 256 256" preserveAspectRatio="xMidYMid"><path d="M216.856 16.597A208.502 208.502 0 0 0 164.042 0c-2.275 4.113-4.933 9.645-6.766 14.046-19.692-2.961-39.203-2.961-58.533 0-1.832-4.4-4.55-9.933-6.846-14.046a207.809 207.809 0 0 0-52.855 16.638C5.618 67.147-3.443 116.4 1.087 164.956c22.169 16.555 43.653 26.612 64.775 33.193A161.094 161.094 0 0 0 79.735 175.3a136.413 136.413 0 0 1-21.846-10.632 108.636 108.636 0 0 0 5.356-4.237c42.122 19.702 87.89 19.702 129.51 0a131.66 131.66 0 0 0 5.355 4.237 136.07 136.07 0 0 1-21.886 10.653c4.006 8.02 8.638 15.67 13.873 22.848 21.142-6.58 42.646-16.637 64.815-33.213 5.316-56.288-9.08-105.09-38.056-148.36ZM85.474 135.095c-12.645 0-23.015-11.805-23.015-26.18s10.149-26.2 23.015-26.2c12.867 0 23.236 11.804 23.015 26.2.02 14.375-10.148 26.18-23.015 26.18Zm85.051 0c-12.645 0-23.014-11.805-23.014-26.18s10.148-26.2 23.014-26.2c12.867 0 23.236 11.804 23.015 26.2 0 14.375-10.148 26.18-23.015 26.18Z"/></symbol><symbol id="icon-facebook"><path d="M.88 12.48C.88 5.587 6.467 0 13.36 0c6.892 0 12.48 5.587 12.48 12.48 0 6.892-5.588 12.48-12.48 12.48C6.467 24.96.88 19.372.88 12.48Z" fill="#3B5998"/><path d="M14.66 19.818v-6.79h1.875l.248-2.34h-2.122l.003-1.17c0-.611.058-.938.934-.938h1.172V6.24h-1.875c-2.251 0-3.044 1.135-3.044 3.044v1.405h-1.403v2.34h1.403v6.789h2.81Z" fill="#fff"/></symbol><symbol id="icon-google"><path d="M.84 12.48C.84 5.587 6.427 0 13.32 0 20.212 0 25.8 5.587 25.8 12.48c0 6.892-5.588 12.48-12.48 12.48C6.427 24.96.84 19.372.84 12.48Z" fill="#fff"/><path d="M13.32 9.163c1.015 0 1.7.439 2.09.805l1.527-1.49c-.938-.871-2.157-1.406-3.618-1.406a5.404 5.404 0 0 0-4.83 2.98l1.748 1.358c.438-1.303 1.652-2.247 3.082-2.247Z" fill="#EA4335"/><path d="M18.512 12.6c0-.444-.037-.769-.115-1.105H13.32v2.007h2.98c-.06.498-.384 1.25-1.105 1.754l1.706 1.322c1.022-.943 1.61-2.331 1.61-3.978Z" fill="#4285F4"/><path d="M10.243 13.55a3.329 3.329 0 0 1-.18-1.07c0-.373.066-.733.174-1.07l-1.749-1.357a5.413 5.413 0 0 0-.576 2.427c0 .871.21 1.695.576 2.428l1.755-1.358Z" fill="#FBBC05"/><path d="M13.32 17.888c1.46 0 2.686-.48 3.581-1.31l-1.707-1.322c-.456.319-1.069.54-1.874.54-1.43 0-2.644-.942-3.077-2.246l-1.748 1.358a5.395 5.395 0 0 0 4.825 2.98Z" fill="#34A853"/></symbol><symbol id="icon-inst"><path fill-rule="evenodd" clip-rule="evenodd" d="M12 2c-2.716 0-3.056.012-4.123.06-1.064.049-1.791.218-2.427.465a4.902 4.902 0 0 0-1.772 1.153A4.902 4.902 0 0 0 2.525 5.45c-.247.636-.416 1.363-.465 2.427C2.011 8.944 2 9.284 2 12s.011 3.056.06 4.123c.049 1.064.218 1.791.465 2.427a4.901 4.901 0 0 0 1.153 1.772 4.901 4.901 0 0 0 1.772 1.153c.636.247 1.363.416 2.427.465 1.067.048 1.407.06 4.123.06s3.056-.012 4.123-.06c1.064-.049 1.791-.218 2.427-.465a4.902 4.902 0 0 0 1.772-1.153 4.902 4.902 0 0 0 1.153-1.772c.247-.636.416-1.363.465-2.427.048-1.067.06-1.407.06-4.123s-.012-3.056-.06-4.123c-.049-1.064-.218-1.791-.465-2.427a4.903 4.903 0 0 0-1.153-1.772 4.902 4.902 0 0 0-1.772-1.153c-.636-.247-1.363-.416-2.427-.465C15.056 2.012 14.716 2 12 2Zm.014 4.88a5.139 5.139 0 1 0 0 10.279 5.139 5.139 0 0 0 0-10.278Zm.01 8.476a3.336 3.336 0 1 1 0-6.672 3.336 3.336 0 0 1 0 6.672Zm6.486-8.712a1.19 1.19 0 1 1-2.381 0 1.19 1.19 0 0 1 2.38 0Z"/></symbol><symbol id="icon-mail-ru"><path d="M0 12.48C0 5.587 5.587 0 12.48 0c6.892 0 12.48 5.587 12.48 12.48 0 6.892-5.588 12.48-12.48 12.48C5.587 24.96 0 19.372 0 12.48Z" fill="#005FF9"/><path fill-rule="evenodd" clip-rule="evenodd" d="M5.2 12.46c0-4.004 3.266-7.26 7.28-7.26s7.28 3.256 7.28 7.26a6.41 6.41 0 0 1-.153 1.486l-.002.008c0 .001-.053.214-.082.306-.18.574-.506 1.052-.942 1.382a2.463 2.463 0 0 1-1.673.49 2.368 2.368 0 0 1-1.82-1.085 3.681 3.681 0 0 1-6.291-2.588 3.681 3.681 0 0 1 3.683-3.672 3.681 3.681 0 0 1 3.682 3.672v1.184c.004.69.468.973.865 1.005.395.03.921-.2 1.104-.948.09-.41.136-.828.136-1.24 0-3.183-2.596-5.772-5.787-5.772s-5.787 2.59-5.787 5.771c0 3.183 2.596 5.771 5.787 5.771 1.11 0 2.191-.316 3.124-.915l.017-.01.98 1.137-.02.014a7.252 7.252 0 0 1-4.1 1.263c-4.015 0-7.28-3.257-7.28-7.26Zm7.28 2.183a2.19 2.19 0 0 0 2.19-2.184 2.19 2.19 0 0 0-4.38 0 2.19 2.19 0 0 0 2.19 2.184Z" fill="#FF9E00"/></symbol><symbol id="icon-map"><g filter="url(#a)"><path d="M1 223.936v-1.95l10.306-5.988 10.305 5.849v2.089l-10.166 5.988L1 223.936Z"/></g><path d="M1 221.985v-1.949l10.306-5.989 10.305 5.85v2.088l-10.166 5.989L1 221.985Z"/><path d="M1 220.036v-1.95l10.306-5.988 10.305 5.849v2.089l-10.166 5.988L1 220.036Z"/><path d="M1 217.938v-1.95L11.306 210l10.305 5.849v2.089l-10.166 5.989L1 217.938Z"/><path stroke="#fff" d="m18.838 214.502 100.694-78.317"/><path d="M1 216.938v-1.95L11.306 209l10.305 5.849v2.089l-10.166 5.989L1 216.938Z"/><path d="M130.649 122.143h3.285l2.329 9.586h.014l2.329-9.586h3.285V135h-2.142v-9.186L137.52 135h-2.5l-2.229-9.186V135h-2.142v-12.857Zm16.981 5.186h-1.786c-.238 0-.357.119-.357.357v4.985c0 .239.119.358.357.358h1.786c.238 0 .357-.119.357-.358v-4.985c0-.238-.119-.357-.357-.357Zm-2.858-1.972h3.929c.4 0 .738.138 1.014.414.276.277.415.615.415 1.015v6.785c0 .4-.139.739-.415 1.015a1.379 1.379 0 0 1-1.014.414h-3.929c-.4 0-.738-.138-1.014-.414a1.381 1.381 0 0 1-.414-1.015v-6.785c0-.4.138-.738.414-1.015a1.379 1.379 0 0 1 1.014-.414Zm8.223 0h4.286v1.972h-3.215c-.238 0-.357.119-.357.357v4.985c0 .239.119.358.357.358h3.572V135h-4.643c-.4 0-.738-.138-1.014-.414a1.382 1.382 0 0 1-.415-1.015v-6.785c0-.4.139-.738.415-1.015a1.379 1.379 0 0 1 1.014-.414Zm6.071 0h2.143v3.829h.615l1.828-3.829h2.372l-2.286 4.814v.015l2.286 4.814h-2.372l-1.828-3.829h-.615V135h-2.143v-9.643Zm12.228 1.972h-2.057v1.857h2.057c.238 0 .357-.119.357-.357v-1.143c0-.238-.119-.357-.357-.357Zm.086 3.842h-2.143v1.858h2.143c.238 0 .357-.119.357-.358v-1.142c0-.239-.119-.358-.357-.358Zm-4.286-5.814h5.271c.4 0 .738.138 1.015.414.276.277.414.615.414 1.015v2.314c0 .276-.1.514-.3.714a1.21 1.21 0 0 1-.757.357v.015c.314.038.581.162.8.371.228.2.343.433.343.7v2.314c0 .4-.139.739-.415 1.015a1.379 1.379 0 0 1-1.014.414h-5.357v-9.643Zm12.865 5.814h-2.143c-.238 0-.357.119-.357.358v1.142c0 .239.119.358.357.358h1.786c.238 0 .357-.119.357-.358v-1.5Zm-4.285-5.814h5c.4 0 .738.138 1.014.414.276.277.414.615.414 1.015V135h-1.857l-.2-.643h-.014a.851.851 0 0 1-.372.457 1.015 1.015 0 0 1-.585.186h-2.329c-.4 0-.738-.138-1.014-.414a1.382 1.382 0 0 1-.415-1.015v-2.957c0-.4.139-.738.415-1.014a1.379 1.379 0 0 1 1.014-.414h3.214v-1.5c0-.238-.119-.357-.357-.357h-3.928v-1.972Z" fill="#fff"/></symbol><symbol id="icon-ok"><path d="M.92 12.48C.92 5.587 6.507 0 13.4 0c6.892 0 12.48 5.587 12.48 12.48 0 6.892-5.588 12.48-12.48 12.48C6.507 24.96.92 19.372.92 12.48Z" fill="#F68634"/><path d="m14.75 15.309 1.865 1.8a.92.92 0 0 1 0 1.335c-.382.368-1 .368-1.382 0l-1.834-1.77-1.832 1.77a.994.994 0 0 1-.691.276c-.25 0-.5-.092-.691-.276a.92.92 0 0 1 0-1.335l1.865-1.8a6.388 6.388 0 0 1-1.938-.774.925.925 0 0 1-.306-1.302.997.997 0 0 1 1.348-.296c1.366.829 3.125.83 4.492 0a.997.997 0 0 1 1.347.296.925.925 0 0 1-.306 1.301 6.377 6.377 0 0 1-1.937.775Z" fill="#fff"/><path fill-rule="evenodd" clip-rule="evenodd" d="M10.055 9.46c0 1.776 1.497 3.22 3.337 3.22s3.336-1.444 3.336-3.22c0-1.775-1.496-3.22-3.337-3.22-1.84 0-3.336 1.445-3.336 3.22Zm4.718 0c0-.735-.62-1.333-1.381-1.333-.762 0-1.382.598-1.382 1.334 0 .734.62 1.333 1.382 1.333.761 0 1.38-.599 1.38-1.333Z" fill="#fff"/></symbol><symbol id="icon-telegram"><path d="m8.97 15.62-.485 5.16s-.203 1.58 1.377 0c1.58-1.582 3.094-2.8 3.094-2.8"/><path d="M5.663 14.075.461 12.38s-.621-.252-.421-.824c.04-.118.124-.218.373-.391 1.152-.803 21.333-8.057 21.333-8.057s.57-.192.906-.064a.492.492 0 0 1 .335.365c.036.15.051.305.045.459-.002.134-.018.257-.03.452-.123 1.983-3.801 16.784-3.801 16.784s-.22.866-1.009.895a1.442 1.442 0 0 1-1.052-.407c-1.547-1.33-6.895-4.925-8.077-5.715a.226.226 0 0 1-.097-.16c-.016-.083.074-.187.074-.187s9.312-8.277 9.56-9.146c.02-.067-.053-.1-.15-.07-.62.227-11.34 6.998-12.524 7.745a.57.57 0 0 1-.263.016Z"/></symbol><symbol id="icon-twitch"><path d="M13.44 25.92c6.893 0 12.48-5.588 12.48-12.48C25.92 6.547 20.332.96 13.44.96 6.547.96.96 6.547.96 13.44c0 6.893 5.587 12.48 12.48 12.48Z" fill="#F1F1F1"/><path fill-rule="evenodd" clip-rule="evenodd" d="m6.396 9.389.976-2.605h13.346V15.9l-3.907 3.906h-2.93L11.93 21.76H9.975v-1.954h-3.58V9.389Zm13.02-1.304H8.673v9.442h2.932v1.952l1.951-1.952h3.58l2.28-2.279V8.085Z" fill="#6441A5"/><path fill-rule="evenodd" clip-rule="evenodd" d="M13.556 14.598h-1.302V10.69h1.303v3.907Zm3.58 0h-1.301V10.69h1.302v3.907Z" fill="#6441A5"/></symbol><symbol id="icon-twitter"><path d="M.92 13.44C.92 6.547 6.507.96 13.4.96c6.892 0 12.48 5.587 12.48 12.48 0 6.893-5.588 12.48-12.48 12.48C6.507 25.92.92 20.332.92 13.44Z" fill="#55ACEE"/><path d="m13.026 11.104.027.432-.437-.053c-1.589-.203-2.977-.89-4.155-2.045l-.576-.573-.149.423c-.314.943-.113 1.94.542 2.61.349.37.27.422-.332.202-.21-.07-.393-.124-.41-.097-.062.062.148.864.314 1.18.227.441.69.873 1.196 1.129l.427.203-.506.008c-.489 0-.506.01-.454.194.175.573.864 1.181 1.633 1.446l.54.185-.47.282a4.915 4.915 0 0 1-2.34.652c-.393.009-.716.044-.716.07 0 .088 1.065.582 1.685.776 1.86.573 4.068.326 5.726-.652 1.179-.697 2.357-2.08 2.907-3.42.297-.714.594-2.018.594-2.644 0-.405.026-.458.515-.943.288-.282.559-.59.611-.678.087-.168.079-.168-.367-.018-.741.264-.846.23-.48-.167.271-.282.594-.793.594-.943 0-.027-.131.017-.28.097a4.87 4.87 0 0 1-.768.3l-.471.15-.428-.292c-.235-.158-.567-.335-.742-.387-.445-.124-1.126-.106-1.527.035-1.092.396-1.781 1.419-1.703 2.538Z" fill="#fff"/></symbol><symbol id="icon-vk"><path d="M.96 12.48C.96 5.587 6.547 0 13.44 0c6.893 0 12.48 5.587 12.48 12.48 0 6.892-5.588 12.48-12.48 12.48C6.547 24.96.96 19.372.96 12.48Z" fill="#4C6C91"/><path d="M14.093 16.576s.24-.027.363-.156c.113-.12.11-.344.11-.344s-.016-1.047.48-1.202c.488-.152 1.115 1.013 1.78 1.461.503.339.884.265.884.265l1.779-.024s.93-.057.489-.774c-.037-.06-.258-.531-1.322-1.502-1.115-1.015-.966-.851.377-2.608.818-1.07 1.144-1.723 1.042-2.002-.097-.267-.698-.196-.698-.196l-2.002.012s-.148-.02-.258.044c-.108.064-.177.211-.177.211s-.317.828-.74 1.532c-.89 1.486-1.247 1.564-1.393 1.472-.339-.215-.254-.864-.254-1.325 0-1.44.222-2.04-.433-2.195-.218-.052-.378-.086-.935-.091-.714-.007-1.318.002-1.66.166-.228.11-.404.354-.297.368.132.017.432.08.59.291.206.275.199.89.199.89s.117 1.694-.276 1.905c-.27.144-.64-.15-1.434-1.499a12.43 12.43 0 0 1-.714-1.453s-.06-.142-.166-.22c-.128-.092-.307-.12-.307-.12l-1.902.012s-.286.007-.39.13c-.094.107-.008.332-.008.332s1.49 3.42 3.176 5.143c1.546 1.58 3.301 1.477 3.301 1.477h.796Z" fill="#fff"/></symbol><symbol id="icon-vkontakte"><path fill-rule="evenodd" clip-rule="evenodd" d="M13.177 21.942s.433-.05.655-.293c.203-.224.196-.645.196-.645s-.027-1.967.866-2.258c.88-.285 2.011 1.903 3.21 2.744.907.636 1.595.497 1.595.497l3.206-.045s1.676-.106.881-1.454c-.066-.11-.463-.997-2.383-2.82-2.01-1.907-1.74-1.598.68-4.898 1.474-2.009 2.064-3.235 1.88-3.76-.176-.502-1.26-.368-1.26-.368l-3.609.022s-.267-.037-.466.084c-.193.12-.319.396-.319.396s-.57 1.555-1.332 2.877c-1.607 2.79-2.25 2.937-2.512 2.765-.612-.405-.46-1.623-.46-2.489 0-2.704.402-3.83-.78-4.122-.392-.098-.68-.161-1.684-.172-1.288-.013-2.377.005-2.995.313-.41.206-.728.664-.534.69.238.033.778.15 1.065.548.37.515.357 1.67.357 1.67s.212 3.182-.497 3.577c-.486.271-1.153-.282-2.586-2.813-.734-1.296-1.288-2.73-1.288-2.73s-.106-.267-.298-.411c-.231-.174-.554-.228-.554-.228l-3.429.023s-.515.014-.704.243c-.168.203-.013.624-.013.624s2.685 6.423 5.725 9.66c2.788 2.967 5.953 2.773 5.953 2.773h1.434Z"/></symbol><symbol id="icon-youtube"><path d="m16.592 8.793-5.236-3.491a.655.655 0 0 0-1.015.545v6.982a.654.654 0 0 0 1.015.546l5.236-3.491a.654.654 0 0 0 0-1.091Zm-4.942 2.814V7.07l3.404 2.27-3.404 2.268Zm12.48-8.563a2.4 2.4 0 0 0-1.45-1.637C18.96-.022 12.991 0 12.74 0c-.25 0-6.218-.022-9.938 1.407a2.4 2.4 0 0 0-1.45 1.637C1.067 4.113.74 6.076.74 9.338c0 3.262.327 5.226.611 6.295a2.4 2.4 0 0 0 1.451 1.636c3.72 1.43 9.687 1.407 9.938 1.407h.077c.752 0 6.316-.043 9.861-1.407a2.4 2.4 0 0 0 1.451-1.636c.284-1.07.611-3.033.611-6.295s-.327-5.225-.61-6.294Zm-1.265 12.261a1.09 1.09 0 0 1-.655.742c-3.49 1.342-9.403 1.32-9.469 1.32-.065 0-5.978.022-9.469-1.32a1.09 1.09 0 0 1-.654-.742c-.262-1.003-.568-2.847-.568-5.967 0-3.12.306-4.963.568-5.967a1.09 1.09 0 0 1 .654-.742c3.491-1.342 9.404-1.32 9.47-1.32.065 0 5.977-.022 9.468 1.32a1.092 1.092 0 0 1 .655.742c.262 1.004.567 2.847.567 5.967 0 3.12-.305 4.964-.567 5.968Z"/></symbol></svg>