<svg width="26" height="26" viewBox="0 0 26 26" fill="none" xmlns="http://www.w3.org/2000/svg">
<path d="M0.919922 13.44C0.919922 6.54745 6.50741 0.959961 13.3999 0.959961C20.2924 0.959961 25.8799 6.54745 25.8799 13.44C25.8799 20.3325 20.2924 25.92 13.3999 25.92C6.50741 25.92 0.919922 20.3325 0.919922 13.44Z" fill="#55ACEE"/>
<path d="M13.0264 11.1039L13.0526 11.5357L12.6161 11.4829C11.0273 11.2802 9.63933 10.5927 8.46085 9.43824L7.8847 8.8654L7.7363 9.28842C7.42204 10.2314 7.62282 11.2273 8.27753 11.8971C8.62671 12.2672 8.54815 12.3201 7.94581 12.0998C7.7363 12.0293 7.55298 11.9764 7.53552 12.0028C7.47442 12.0645 7.68393 12.8665 7.84979 13.1838C8.07675 13.6244 8.53942 14.0562 9.04573 14.3118L9.47347 14.5145L8.96716 14.5233C8.47831 14.5233 8.46085 14.5321 8.51323 14.7172C8.68782 15.2901 9.37745 15.8982 10.1456 16.1626L10.6869 16.3476L10.2155 16.6296C9.51712 17.035 8.69655 17.2642 7.87598 17.2818C7.48315 17.2906 7.16016 17.3259 7.16016 17.3523C7.16016 17.4404 8.22516 17.934 8.84495 18.1278C10.7043 18.7007 12.9129 18.4539 14.5715 17.4757C15.75 16.7795 16.9285 15.3958 17.4784 14.0562C17.7752 13.3424 18.072 12.0381 18.072 11.4124C18.072 11.007 18.0982 10.9541 18.5871 10.4694C18.8751 10.1873 19.1458 9.87889 19.1981 9.79076C19.2854 9.62332 19.2767 9.62332 18.8315 9.77314C18.0895 10.0375 17.9847 10.0023 18.3514 9.60569C18.622 9.32368 18.945 8.81252 18.945 8.6627C18.945 8.63626 18.814 8.68033 18.6656 8.75965C18.5085 8.84777 18.1593 8.97997 17.8974 9.05929L17.426 9.20911L16.9983 8.91828C16.7626 8.75965 16.4309 8.58339 16.2563 8.53051C15.8111 8.40713 15.1302 8.42475 14.7286 8.56576C13.6374 8.96234 12.9478 9.98465 13.0264 11.1039Z" fill="white"/>
</svg>
