<svg width="26" height="25" viewBox="0 0 26 25" fill="none" xmlns="http://www.w3.org/2000/svg">
<path d="M0.959961 12.48C0.959961 5.58749 6.54745 0 13.44 0C20.3325 0 25.92 5.58749 25.92 12.48C25.92 19.3725 20.3325 24.96 13.44 24.96C6.54745 24.96 0.959961 19.3725 0.959961 12.48Z" fill="#4C6C91"/>
<path d="M14.093 16.5755C14.093 16.5755 14.3333 16.5493 14.4563 16.4196C14.569 16.3007 14.5651 16.0764 14.5651 16.0764C14.5651 16.0764 14.5501 15.0289 15.0456 14.8742C15.5339 14.7221 16.1609 15.8872 16.8263 16.3352C17.3289 16.674 17.7105 16.5998 17.7105 16.5998L19.4886 16.5755C19.4886 16.5755 20.4184 16.5193 19.9776 15.8016C19.9411 15.7428 19.7204 15.2705 18.6559 14.3003C17.5405 13.2848 17.6903 13.449 19.0328 11.6921C19.8506 10.6222 20.1775 9.96908 20.0752 9.68979C19.9782 9.42264 19.3766 9.49358 19.3766 9.49358L17.3752 9.50573C17.3752 9.50573 17.2267 9.48591 17.1167 9.55046C17.0093 9.61373 16.9396 9.76137 16.9396 9.76137C16.9396 9.76137 16.6232 10.589 16.2006 11.2933C15.3093 12.7786 14.9531 12.8572 14.8073 12.7652C14.468 12.5498 14.5527 11.9011 14.5527 11.4403C14.5527 10.0004 14.7754 9.40027 14.1197 9.24497C13.9023 9.1932 13.7421 9.15933 13.1854 9.15358C12.4712 9.14655 11.8669 9.15613 11.5245 9.32038C11.2966 9.42967 11.1208 9.67381 11.2282 9.68787C11.3604 9.70513 11.6599 9.76712 11.8188 9.9793C12.0239 10.2535 12.0167 10.8683 12.0167 10.8683C12.0167 10.8683 12.1345 12.5632 11.7413 12.7735C11.4717 12.9179 11.1019 12.6233 10.3069 11.2754C9.9 10.5852 9.59268 9.82208 9.59268 9.82208C9.59268 9.82208 9.53343 9.67956 9.42731 9.60287C9.29904 9.5102 9.11999 9.48144 9.11999 9.48144L7.21816 9.49358C7.21816 9.49358 6.93233 9.50125 6.8275 9.62332C6.7344 9.73133 6.82034 9.95566 6.82034 9.95566C6.82034 9.95566 8.30938 13.3755 9.99571 15.0992C11.542 16.6791 13.2974 16.5755 13.2974 16.5755H14.093Z" fill="white"/>
</svg>
